<svg width="56" height="55" viewBox="0 0 56 55" fill="none" xmlns="http://www.w3.org/2000/svg">
<rect width="56" height="55" rx="7" fill="#5066ed"/>
<path d="M41.3929 27.7971H44.9694V24.5787C44.9694 23.9103 44.4244 23.3653 43.756 23.3653H23.6099C23.6736 23.4966 23.7333 23.6279 23.793 23.7632C24.1988 24.7259 24.4056 25.7483 24.4056 26.8026C24.4056 27.1367 24.3857 27.4709 24.3419 27.7971H41.3929Z" fill="white"/>
<path d="M16.6 20.3894C16.4648 20.3894 16.3335 20.3934 16.2022 20.4014V27.793H20.6221H22.9335C22.9853 27.4668 23.0091 27.1366 23.0091 26.7985C23.0091 25.5334 22.6431 24.3558 22.0105 23.3652C20.8767 21.5749 18.8756 20.3894 16.6 20.3894Z" fill="white"/>
<path d="M11.1935 39H13.6163C14.2767 39 14.8098 38.4669 14.8098 37.8065V33.9993H41.3928V37.8065C41.3928 38.4669 41.9259 39 42.5863 39H45.009C45.6694 39 46.2025 38.4669 46.2025 37.8065V30.383C46.2025 29.7226 45.6694 29.1895 45.009 29.1895H41.3928H14.8098V20.6441V18.1935C14.8098 17.5331 14.2767 17 13.6163 17H11.1935C10.5331 17 10 17.5331 10 18.1935V22.6373V24.1689V29.4322V30.9638V37.8065C10 38.4629 10.5331 39 11.1935 39Z" fill="white"/>
</svg>
