<svg xmlns="http://www.w3.org/2000/svg" viewBox="0 0 156 54"><style>.st1{fill:#fff}.st2{fill:#201547}</style><path fill="#5369e5" d="M0 0h54v54H0z"/><path class="st1" d="M16.8 24.2v11.4h5.7V18.5h-5.7zm14.3-5.7v17.1h5.7V18.5zm12.8 2.7c0 1.6-1.3 2.9-2.9 2.9s-2.9-1.3-2.9-2.9c0-1.6 1.3-2.8 2.8-2.9 1.7.1 2.9 1.4 3 2.9"/><path class="st2" d="M85.8 23.3h3.6v12.3h-3.6V23.3zm-.4-3.8c0-1.1.9-2.1 2-2.1h.1c1.2 0 2.1 1 2.1 2.1 0 1.2-1 2.1-2.1 2.1-1.1.1-2.1-.8-2.1-2.1 0 .1 0 .1 0 0m6.7-1.2h3.6v17.3h-3.6zm6.3 0h3.6v17.3h-3.6zm29.4 5h3.6V25c.7-1.2 2.1-1.9 3.5-1.9 1.6-.2 3.1.7 3.7 2.2.9-1.4 2.5-2.3 4.2-2.2 2.3-.2 4.2 1.5 4.4 3.8v8.7h-3.6v-7.4c.1-1-.6-2-1.6-2.2h-.4c-1.5 0-2.4 1.2-2.4 3.2v6.3h-3.5v-7.4c.1-1.1-.6-2-1.6-2.2h-.4c-1.5 0-2.3 1.2-2.3 3.2v6.3h-3.6V23.3zm-23.1 0h3.6v12.3h-3.6zm15.4 9.5c-1.8 0-3.2-1.5-3.2-3.2s1.5-3.2 3.2-3.2 3.2 1.5 3.2 3.2c0 1.7-1.4 3.2-3.2 3.2m0-9.7c-3.5 0-6.4 2.9-6.4 6.4s2.9 6.4 6.4 6.4 6.4-2.9 6.4-6.4c0-3.5-2.8-6.4-6.4-6.4m-11 2.2c0-1.2.9-2.1 2.1-2.1h.1c1.2 0 2.1 1 2.1 2.1 0 1.2-1 2.1-2.1 2.1-1.2.1-2.1-.8-2.2-2.1 0 .1 0 .1 0 0m-26-6.8v17.1h-3.9v-7.1h-6.8v7.1h-3.9V18.5h3.9v6.7h6.8v-6.7z"/><path class="st1" d="M29.6 27.1c0 1.6-1.3 2.9-2.9 2.9s-2.9-1.3-2.9-2.9c0-1.6 1.3-2.9 2.8-2.9 1.7 0 3 1.3 3 2.9"/><path class="st2" d="M150.3 33.1h-.9v-.6h2.6v.6h-.9v2.5h-.8v-2.5zm2-.6h.8l.9 2.1.9-2.1h.8v3.2h-.7v-1.8l-.8 1.8h-.5l-.8-1.8v1.8h-.7l.1-3.2z"/></svg>