<svg width="56" height="55" viewBox="0 0 56 55" fill="none" xmlns="http://www.w3.org/2000/svg">
<rect width="56" height="55" rx="7" fill="#f68d2e"/>
<path fill-rule="evenodd" clip-rule="evenodd" d="M18.8333 14.625H17.625C15.6264 14.625 14 16.2514 14 18.25V40.375C14 42.3736 15.6264 44 17.625 44H39.375C41.3736 44 43 42.3736 43 40.375V18.25C43 16.2514 41.3736 14.625 39.375 14.625H38.1667V12.2083C38.1667 11.5414 37.6253 11 36.9583 11H35.75C35.0829 11 34.5417 11.5414 34.5417 12.2083V14.625H22.4583V12.2083C22.4583 11.5414 21.9171 11 21.25 11H20.0417C19.3747 11 18.8333 11.5414 18.8333 12.2083V14.625ZM17.625 41.5833C16.9593 41.5833 16.4167 41.0407 16.4167 40.375V23.1317H40.5833V40.375C40.5833 41.0407 40.0407 41.5833 39.375 41.5833H17.625ZM22 28C20.8954 28 20 28.8954 20 30C20 31.1046 20.8954 32 22 32H25C26.1046 32 27 31.1046 27 30C27 28.8954 26.1046 28 25 28H22Z" fill="white"/>
</svg>
