<svg width="56" height="55" viewBox="0 0 56 55" fill="none" xmlns="http://www.w3.org/2000/svg">
<rect width="56" height="55" rx="7" fill="#59bec9"/>
<path d="M40.2916 32.1717C41.3731 29.6022 41.622 26.7584 41.0035 24.0401C40.3849 21.3217 38.93 18.8657 36.8432 17.0171C34.7564 15.1685 32.1428 14.0204 29.3697 13.7343C26.5966 13.4481 23.8036 14.0382 21.3833 15.4217L19.73 12.5267C22.2594 11.081 25.1236 10.3239 28.037 10.331C30.9503 10.338 33.8109 11.1089 36.3333 12.5667C43.8167 16.8867 46.6833 26.1367 43.195 33.85L45.4316 35.14L38.49 38.83L38.215 30.9733L40.2916 32.1717ZM15.7083 21.8283C14.6269 24.3978 14.378 27.2416 14.9965 29.96C15.6151 32.6783 17.07 35.1343 19.1568 36.9829C21.2435 38.8315 23.8572 39.9796 26.6303 40.2657C29.4033 40.5519 32.1963 39.9618 34.6166 38.5783L36.27 41.4733C33.7406 42.919 30.8763 43.6761 27.963 43.669C25.0496 43.662 22.189 42.8912 19.6666 41.4333C12.1833 37.1133 9.31665 27.8633 12.805 20.15L10.5667 18.8617L17.5083 15.1717L17.7833 23.0283L15.7067 21.83L15.7083 21.8283ZM22.1666 30.3333H31.3333C31.5543 30.3333 31.7663 30.2455 31.9226 30.0893C32.0789 29.933 32.1667 29.721 32.1667 29.5C32.1667 29.279 32.0789 29.067 31.9226 28.9107C31.7663 28.7545 31.5543 28.6667 31.3333 28.6667H24.6666C23.5616 28.6667 22.5018 28.2277 21.7204 27.4463C20.939 26.6649 20.5 25.6051 20.5 24.5C20.5 23.3949 20.939 22.3351 21.7204 21.5537C22.5018 20.7723 23.5616 20.3333 24.6666 20.3333H26.3333V18.6667H29.6667V20.3333H33.8333V23.6667H24.6666C24.4456 23.6667 24.2337 23.7545 24.0774 23.9107C23.9211 24.067 23.8333 24.279 23.8333 24.5C23.8333 24.721 23.9211 24.933 24.0774 25.0893C24.2337 25.2455 24.4456 25.3333 24.6666 25.3333H31.3333C32.4384 25.3333 33.4982 25.7723 34.2796 26.5537C35.061 27.3351 35.5 28.3949 35.5 29.5C35.5 30.6051 35.061 31.6649 34.2796 32.4463C33.4982 33.2277 32.4384 33.6667 31.3333 33.6667H29.6667V35.3333H26.3333V33.6667H22.1666V30.3333Z" fill="white"/>
</svg>
